<svg width="17" height="16" viewBox="0 0 17 16" fill="none" xmlns="http://www.w3.org/2000/svg">
<g clip-path="url(#clip0_1_31)">
<path d="M16.8605 4.68564C16.8232 3.83882 16.6862 3.25664 16.49 2.75218C16.2877 2.2167 15.9763 1.73729 15.5684 1.33875C15.1698 0.934014 14.6872 0.619514 14.1579 0.420306C13.6504 0.224139 13.0713 0.0871989 12.2244 0.0498627C11.3712 0.00936445 11.1003 0 8.93634 0C6.77237 0 6.50151 0.00936445 5.65147 0.0467007C4.80459 0.0840369 4.22236 0.221099 3.71798 0.417144C3.18234 0.619514 2.70289 0.930852 2.30432 1.33875C1.89955 1.73729 1.58515 2.21986 1.3858 2.74914C1.18962 3.25664 1.05267 3.83566 1.01533 4.68247C0.974831 5.53561 0.965466 5.80645 0.965466 7.97025C0.965466 10.1341 0.974831 10.4049 1.01217 11.2549C1.04951 12.1017 1.18658 12.6839 1.38276 13.1883C1.58515 13.7238 1.89955 14.2032 2.30432 14.6018C2.70289 15.0065 3.1855 15.321 3.71482 15.5202C4.22236 15.7164 4.80143 15.8533 5.64843 15.8906C6.49835 15.9281 6.76933 15.9373 8.9333 15.9373C11.0973 15.9373 11.3681 15.9281 12.2182 15.8906C13.0651 15.8533 13.6473 15.7164 14.1517 15.5202C15.2228 15.1061 16.0697 14.2593 16.4838 13.1883C16.6799 12.6808 16.817 12.1017 16.8543 11.2549C16.8917 10.4049 16.901 10.1341 16.901 7.97025C16.901 5.80645 16.8979 5.53561 16.8605 4.68564ZM15.4252 11.1926C15.3909 11.9709 15.2602 12.3913 15.1512 12.6715C14.8834 13.3658 14.3323 13.9168 13.6379 14.1846C13.3577 14.2936 12.9343 14.4243 12.1589 14.4585C11.3183 14.4959 11.0661 14.5052 8.9395 14.5052C6.81287 14.5052 6.55758 14.4959 5.71994 14.4585C4.94154 14.4243 4.5212 14.2936 4.24097 14.1846C3.89543 14.0569 3.58091 13.8545 3.32562 13.5899C3.06096 13.3315 2.85857 13.0201 2.73087 12.6746C2.62189 12.3944 2.49114 11.9709 2.45696 11.1958C2.4195 10.3551 2.41026 10.1029 2.41026 7.97645C2.41026 5.84999 2.4195 5.59472 2.45696 4.75727C2.49114 3.97892 2.62189 3.55862 2.73087 3.27841C2.85857 2.93278 3.06096 2.6184 3.32878 2.36301C3.58711 2.09837 3.89847 1.896 4.24414 1.76842C4.52436 1.65946 4.94786 1.52872 5.72311 1.49442C6.56379 1.45709 6.81604 1.44772 8.94254 1.44772C11.0723 1.44772 11.3245 1.45709 12.1621 1.49442C12.9405 1.52872 13.3608 1.65946 13.6411 1.76842C13.9866 1.896 14.3011 2.09837 14.5564 2.36301C14.8211 2.62144 15.0235 2.93278 15.1512 3.27841C15.2602 3.55862 15.3909 3.98196 15.4252 4.75727C15.4625 5.59788 15.4719 5.84999 15.4719 7.97645C15.4719 10.1029 15.4625 10.352 15.4252 11.1926Z" fill="white"/>
<path d="M8.93533 3.87619C6.67526 3.87619 4.84154 5.70992 4.84154 7.97028C4.84154 10.2306 6.67526 12.0644 8.93533 12.0644C11.1955 12.0644 13.0291 10.2306 13.0291 7.97028C13.0291 5.70992 11.1955 3.87619 8.93533 3.87619ZM8.93533 10.626C7.46911 10.626 6.27979 9.43674 6.27979 7.97028C6.27979 6.50383 7.46911 5.31455 8.93533 5.31455C10.4017 5.31455 11.5909 6.50383 11.5909 7.97028C11.5909 9.43674 10.4017 10.626 8.93533 10.626Z" fill="white"/>
<path d="M14.1475 3.7143C14.1475 4.24211 13.7196 4.67008 13.1916 4.67008C12.6638 4.67008 12.2358 4.24211 12.2358 3.7143C12.2358 3.18636 12.6638 2.75851 13.1916 2.75851C13.7196 2.75851 14.1475 3.18636 14.1475 3.7143Z" fill="white"/>
</g>
<defs>
<clipPath id="clip0_1_31">
<rect width="15.9374" height="15.9374" fill="white" transform="translate(0.937391)"/>
</clipPath>
</defs>
</svg>
