<svg width="132" height="26" viewBox="0 0 132 26" fill="none" xmlns="http://www.w3.org/2000/svg">
<path d="M10.5703 10.4082H10.667L13.6104 21H16.6719L20.7861 5.49902H17.4238L14.9746 16.7246H14.8887L11.9883 5.49902H9.24902L6.34863 16.7246H6.2627L3.82422 5.49902H0.461914L4.56543 21H7.62695L10.5703 10.4082ZM25.7812 5.49902H22.5371V15.5215C22.5371 18.9375 25.0615 21.2686 29.0361 21.2686C33 21.2686 35.5244 18.9375 35.5244 15.5215V5.49902H32.2803V15.1992C32.2803 17.1865 31.1094 18.4863 29.0361 18.4863C26.9521 18.4863 25.7812 17.1865 25.7812 15.1992V5.49902ZM44.9775 21C48.2861 21 50.3379 19.292 50.3379 16.5635C50.3379 14.5117 48.791 12.9756 46.6855 12.8145V12.7285C48.3291 12.4814 49.5967 11.0635 49.5967 9.36621C49.5967 6.99219 47.7705 5.49902 44.8594 5.49902H38.1133V21H44.9775ZM41.3574 7.91602H44.0215C45.5361 7.91602 46.4062 8.625 46.4062 9.87109C46.4062 11.1816 45.418 11.9443 43.6885 11.9443H41.3574V7.91602ZM41.3574 18.583V14.082H44.0752C45.9873 14.082 47.0293 14.8555 47.0293 16.3057C47.0293 17.7881 46.0195 18.583 44.1504 18.583H41.3574ZM59.0498 21C62.3584 21 64.4102 19.292 64.4102 16.5635C64.4102 14.5117 62.8633 12.9756 60.7578 12.8145V12.7285C62.4014 12.4814 63.6689 11.0635 63.6689 9.36621C63.6689 6.99219 61.8428 5.49902 58.9316 5.49902H52.1855V21H59.0498ZM55.4297 7.91602H58.0938C59.6084 7.91602 60.4785 8.625 60.4785 9.87109C60.4785 11.1816 59.4902 11.9443 57.7607 11.9443H55.4297V7.91602ZM55.4297 18.583V14.082H58.1475C60.0596 14.082 61.1016 14.8555 61.1016 16.3057C61.1016 17.7881 60.0918 18.583 58.2227 18.583H55.4297ZM69.502 5.49902H66.2578V15.5215C66.2578 18.9375 68.7822 21.2686 72.7568 21.2686C76.7207 21.2686 79.2451 18.9375 79.2451 15.5215V5.49902H76.001V15.1992C76.001 17.1865 74.8301 18.4863 72.7568 18.4863C70.6729 18.4863 69.502 17.1865 69.502 15.1992V5.49902ZM81.2539 16.585C81.3506 19.4961 83.7246 21.2686 87.4521 21.2686C91.2979 21.2686 93.7363 19.3672 93.7363 16.3594C93.7363 13.9961 92.3828 12.6641 89.2783 11.998L87.3984 11.6006C85.6152 11.1924 84.8633 10.6553 84.8633 9.69922C84.8633 8.5498 85.9375 7.78711 87.5381 7.78711C89.1602 7.78711 90.3096 8.58203 90.417 9.89258H93.457C93.4033 7.08887 91.1367 5.23047 87.5273 5.23047C84.0684 5.23047 81.5977 7.12109 81.5977 9.97852C81.5977 12.2451 83.0049 13.6953 85.8623 14.3076L87.8818 14.748C89.751 15.167 90.4922 15.7256 90.4922 16.7354C90.4922 17.874 89.3105 18.7012 87.5811 18.7012C85.8623 18.7012 84.5303 17.8633 84.3799 16.585H81.2539ZM109.205 21V5.49902H105.961V11.7939H98.9785V5.49902H95.7344V21H98.9785V14.4688H105.961V21H109.205ZM115.027 21V5.49902H111.783V21H115.027Z" fill="white"/>
<path d="M121.727 11.4297V6.60156H123.625V5.72656H118.773V6.60156H120.672V11.4297H121.727ZM130.633 11.4297V5.72656H129.414L127.562 9.99219H127.531L125.672 5.72656H124.453V11.4297H125.406V7.41406H125.438L127.18 11.3828H127.906L129.656 7.41406H129.68V11.4297H130.633Z" fill="white"/>
</svg>
